<svg width="142" height="24" viewBox="0 0 142 24" fill="none" xmlns="http://www.w3.org/2000/svg">
<path d="M71.8938 0.443401L76.038 0.422363L76.0275 12.9499C76.0275 16.9416 74.1289 20.3969 70.2476 21.4225C65.6984 22.6216 60.5128 20.9965 59.2085 16.3C58.9192 15.2534 58.7509 14.2226 58.7509 13.1024V0.432884H62.8479V13.2602C62.9425 14.5645 63.358 15.732 64.2363 16.6576C65.7983 18.3038 69.2378 18.1933 70.6421 16.5787C71.4099 15.7004 71.8622 14.5382 71.8622 13.3233L71.899 0.459178L71.8938 0.443401Z" fill="#3E4861"/>
<path d="M15.4569 0.948099L19.901 0.895508L12.112 21.8956L7.78893 21.9114L0 0.911285H4.5282L9.95048 16.3682L15.4569 0.948099Z" fill="#3E4861"/>
<path d="M28.2053 0.88501H24.1083V21.9377H28.2053V0.88501Z" fill="#3E4861"/>
<path d="M118.044 0.879883H103.87V4.75068H118.044V0.879883Z" fill="#3E4861"/>
<path d="M118.275 18.1406H103.854V21.9378H118.275V18.1406Z" fill="#3E4861"/>
<path d="M116.745 9.44702H103.859V13.2705H116.745V9.44702Z" fill="#3E4861"/>
<path d="M51.4616 18.4194C54.7855 15.0535 55.2009 9.46816 53.0604 5.38173C51.246 1.91064 47.7539 0.0646487 43.8883 0.00153788C39.6389 -0.0668322 35.8101 2.1473 34.0799 6.07595C33.028 8.45839 32.8387 11.0827 33.4172 13.6493C34.8372 19.9656 41.3639 23.1843 47.4226 21.07L49.1739 23.5261L55.2746 23.5051L51.4616 18.4141V18.4194ZM49.0582 14.901C47.9432 16.6996 46.1761 17.7357 43.9672 17.8093C41.3061 17.8987 39.0498 16.484 38.0085 14.1331C36.862 11.5508 37.0829 8.55305 38.7764 6.3021C39.8861 4.82951 41.4743 4.06693 43.2888 3.93544C46.1498 3.72508 48.6637 5.3607 49.6419 8.05869C50.4676 10.3359 50.3309 12.8551 49.0582 14.9062V14.901Z" fill="#3E4861"/>
<path d="M99.1051 15.9792C99.0262 13.6862 97.7745 11.8191 95.4709 11.0092C97.2854 10.0626 98.0848 8.5479 98.1584 6.71243C98.2373 4.80858 97.5062 3.10459 95.8759 2.05275C94.6873 1.31119 93.2989 0.916748 91.8263 0.916748H82.3491V21.9327H91.6738C93.2568 21.9432 94.7451 21.696 96.1441 21.0333C98.1163 20.0867 99.1734 18.1565 99.0998 15.9845L99.1051 15.9792ZM86.4513 4.59295L91.679 4.61925C92.9044 4.65607 93.8669 5.43443 94.0036 6.70717C94.2192 8.27968 93.099 9.45775 91.5896 9.47352L86.4513 9.52612V4.59821V4.59295ZM94.9082 16.2685C94.7083 17.294 93.7406 18.1565 92.4837 18.167L86.4566 18.2249V13.0814L91.5423 13.0708C92.2996 13.0814 93.0254 13.2023 93.6933 13.5074C94.6926 14.0754 95.1238 15.1482 94.9082 16.2632V16.2685Z" fill="#3E4861"/>
<path d="M135.946 1.74225C134.579 1.21106 133.211 0.895508 131.712 0.895508H123.271V21.9325L132.28 21.8851C136.772 21.6958 140.479 18.7822 141.547 14.4433C142.815 9.29451 141.016 3.83542 135.951 1.74225H135.946ZM137.319 13.8753C136.493 16.4103 134.31 18.0354 131.728 18.0406L127.352 18.0511V4.76631L132.138 4.81364C134.352 4.83468 136.183 6.23363 137.056 8.24266C137.76 10.0308 137.934 11.9609 137.313 13.87L137.319 13.8753Z" fill="#3E4861"/>
</svg>
