<svg width="35" height="32" viewBox="0 0 35 32" fill="none" xmlns="http://www.w3.org/2000/svg">
<path d="M19.9199 15.5619L17.8424 17.6574L15.9808 19.5281L14.8656 20.6523C14.335 21.1919 13.6784 21.5786 12.9859 21.8664L12.3384 22.0732C11.3761 22.334 10.3688 22.2621 9.44249 21.8934C8.28233 21.4257 7.31102 20.5353 6.5106 19.582C5.96199 18.9255 5.49434 18.224 5.11661 17.4596C5.06265 17.3426 5.09863 17.2167 5.17958 17.1358C5.26052 17.0459 5.37742 17.0279 5.50333 17.0728C5.89904 17.1988 6.28578 17.3067 6.69948 17.3516C7.365 17.4236 8.03049 17.4146 8.69601 17.2707C9.79322 17.0369 10.7915 16.4973 11.6099 15.7238L12.6801 14.6536L17.9054 9.34743L19.4703 7.76457L20.9632 6.25366L22.4741 4.72476L24.1379 3.04298L25.7387 1.42415L27.0338 0.111092C27.1057 0.0391435 27.1867 0.00317383 27.3036 0.00317383H34.2376C34.3815 0.00317383 34.4804 0.0751191 34.5254 0.183041C34.5704 0.290963 34.5524 0.425868 34.4624 0.515803L34.2196 0.776616L32.5198 2.55733L29.1472 6.08278L26.5392 8.81681L24.4617 10.9932L23.958 11.5149L19.9109 15.5529L19.9199 15.5619Z" fill="#4362AD"/>
<path d="M9.33456 16.2634C9.33456 16.3893 9.29859 16.4613 9.22664 16.5242C9.1547 16.5962 9.05576 16.6232 8.93885 16.5872L3.91145 15.2921L1.12349 14.5637C1.00657 14.5367 0.952599 14.4018 0.943605 14.3118C0.934612 14.1859 0.99756 14.087 1.10548 14.0151L2.54448 12.9808C1.21344 11.0652 0.170192 8.79882 0.0173028 6.4695C-0.0996127 4.70677 0.36801 2.84512 1.66307 1.60402C2.22967 1.05541 2.8952 0.6507 3.64166 0.398882C4.64893 0.0481351 5.70119 -0.0597834 6.75343 0.0301517C6.90632 0.0391452 7.01421 0.120089 7.05918 0.263985C7.10415 0.407881 7.04121 0.542778 6.9063 0.62372C6.56455 0.812583 6.24979 1.01943 5.962 1.29823C5.70119 1.55005 5.47637 1.81986 5.30549 2.15262C4.76588 3.18687 4.76583 4.30207 5.03564 5.42626C5.42236 7.04509 6.16885 8.38512 7.08619 9.77012L8.71401 8.60996C8.80394 8.547 8.90287 8.55599 8.9928 8.60096C9.07375 8.63694 9.14569 8.72688 9.15468 8.84379L9.34356 16.2814L9.33456 16.2634Z" fill="#4362AD"/>
<path d="M31.1978 28.3866C30.6132 30.0144 29.435 31.2915 27.7533 31.7861C27.0787 31.984 26.3862 32.0379 25.6758 31.975C24.2008 31.8581 22.6989 31.3185 21.3769 30.6889L19.6321 29.7536L18.6608 31.2555C18.5979 31.3544 18.481 31.3904 18.382 31.3814C18.2831 31.3724 18.1752 31.3185 18.1302 31.2015L16.2506 26.9746L14.9465 24.0337C14.9015 23.9258 14.8925 23.8359 14.9465 23.7279C14.9825 23.656 15.0724 23.5661 15.1893 23.5661L23.2205 23.4312C23.3285 23.4312 23.4004 23.5391 23.4364 23.584C23.4903 23.692 23.4813 23.7909 23.4364 23.8898L22.528 25.3108C23.913 26.0573 25.343 26.5879 26.9079 26.7767C27.6004 26.8577 28.2839 26.7857 28.9314 26.5609C29.9387 26.2012 30.6312 25.4727 31.0539 24.5104C31.1079 24.3935 31.2607 24.3485 31.3687 24.3755C31.4856 24.4025 31.5665 24.5014 31.5845 24.6363C31.7464 25.9044 31.6295 27.1814 31.1978 28.3866Z" fill="#4362AD"/>
<path d="M14.7846 10.6695L12.824 9.10458C11.6459 8.22321 10.4047 7.35984 9.10069 6.68533C8.29127 6.27163 7.37393 5.86692 6.4566 5.96585C6.29471 5.98383 6.10583 5.98383 6.04288 5.80396C5.94395 5.49818 5.87201 5.18341 5.82704 4.85965C5.68314 3.86137 5.87201 2.69221 6.55551 1.92776C6.94223 1.49607 7.42792 1.19929 7.99451 1.06439C8.30928 0.992439 8.61505 0.947469 8.93881 0.956463C10.045 0.983443 11.1512 1.40614 12.1315 1.89179L13.3636 2.55731C14.6587 3.32175 15.8818 4.17614 17.0599 5.10247C17.6715 5.58812 18.2651 6.06478 18.8407 6.5864C18.9846 6.71231 18.9756 6.91017 18.8407 7.03607L16.8081 9.05062L15.4232 10.4176L15.1983 10.6335C15.0904 10.7324 14.9285 10.7684 14.7936 10.6605L14.7846 10.6695Z" fill="#4362AD"/>
<path d="M30.3074 21.2729L30.0196 20.3375C29.7858 19.7529 29.5249 19.1953 29.2012 18.6467L28.4997 17.4596L27.4654 15.8857L25.9006 13.7903L23.967 11.5149L19.9199 15.553L21.7006 17.6395C22.3661 18.4849 22.9867 19.3392 23.5713 20.2386L24.3987 21.6416C24.8394 22.451 25.1901 23.2784 25.4329 24.1688C25.5319 24.5195 25.5858 24.8613 25.6038 25.221C25.6038 25.3649 25.7117 25.4638 25.8376 25.4998C26.737 25.7786 27.7353 25.8865 28.6256 25.5807C29.543 25.266 30.2175 24.4925 30.4063 23.5482C30.5053 23.0716 30.5232 22.6129 30.4603 22.1272C30.4243 21.8304 30.3884 21.5427 30.3074 21.2549V21.2729Z" fill="#4362AD"/>
</svg>
