<svg width="169" height="28" viewBox="0 0 169 28" fill="none" xmlns="http://www.w3.org/2000/svg">
<path d="M85.5645 0.527479L90.4969 0.502441L90.4843 15.4121C90.4843 20.1629 88.2247 24.2753 83.6054 25.4958C78.1911 26.9229 72.0194 24.9888 70.4671 19.3993C70.1228 18.1537 69.9225 16.9268 69.9225 15.5936V0.514963H74.7985V15.7814C74.9112 17.3337 75.4057 18.7233 76.451 19.8249C78.31 21.7841 82.4036 21.6526 84.0748 19.731C84.9887 18.6857 85.527 17.3024 85.527 15.8565L85.5708 0.546256L85.5645 0.527479Z" fill="white"/>
<path d="M18.3961 1.129L23.6852 1.06641L14.4152 26.0598L9.27002 26.0786L0 1.08518H5.38925L11.8426 19.4813L18.3961 1.129Z" fill="white"/>
<path d="M33.5686 1.05322H28.6926V26.1092H33.5686V1.05322Z" fill="white"/>
<path d="M140.49 1.04736H123.621V5.65421H140.49V1.04736Z" fill="white"/>
<path d="M140.765 21.5898H123.602V26.1091H140.765V21.5898Z" fill="white"/>
<path d="M138.944 11.2437H123.609V15.7942H138.944V11.2437Z" fill="white"/>
<path d="M61.2472 21.9219C65.2031 17.9159 65.6975 11.2686 63.15 6.40509C60.9906 2.27395 56.8344 0.0769419 52.2338 0.00183031C47.1763 -0.0795405 42.6195 2.55562 40.5602 7.23131C39.3084 10.0668 39.083 13.1902 39.7715 16.2447C41.4616 23.7621 49.2294 27.5928 56.4401 25.0766L58.5244 27.9997L65.7852 27.9746L61.2472 21.9156V21.9219ZM58.3867 17.7344C57.0597 19.8751 54.9566 21.1082 52.3277 21.1958C49.1605 21.3022 46.4752 19.6185 45.2359 16.8206C43.8714 13.7472 44.1343 10.1794 46.1498 7.50046C47.4705 5.74786 49.3608 4.84026 51.5202 4.68378C54.9253 4.43341 57.9172 6.38005 59.0815 9.59107C60.0642 12.3013 59.9014 15.2995 58.3867 17.7407V17.7344Z" fill="white"/>
<path d="M117.95 19.0179C117.856 16.2889 116.367 14.0668 113.625 13.1029C115.784 11.9762 116.736 10.1735 116.823 7.98905C116.917 5.72319 116.047 3.69518 114.107 2.44332C112.692 1.56076 111.04 1.09131 109.287 1.09131H98.0081V26.1035H109.106C110.99 26.116 112.761 25.8218 114.426 25.0331C116.773 23.9064 118.032 21.6093 117.944 19.0242L117.95 19.0179ZM102.89 5.46656L109.112 5.49785C110.57 5.54167 111.716 6.46805 111.879 7.9828C112.135 9.85433 110.802 11.2564 109.006 11.2752L102.89 11.3378V5.47282V5.46656ZM112.955 19.3622C112.717 20.5828 111.566 21.6093 110.07 21.6218L102.897 21.6907V15.5691L108.949 15.5565C109.851 15.5691 110.714 15.713 111.509 16.0761C112.699 16.7521 113.212 18.029 112.955 19.3559V19.3622Z" fill="white"/>
<path d="M161.797 2.07415C160.169 1.44196 158.542 1.06641 156.758 1.06641H146.712V26.1036L157.434 26.0473C162.779 25.8219 167.192 22.3543 168.463 17.1904C169.971 11.0625 167.831 4.56535 161.803 2.07415H161.797ZM163.43 16.5143C162.448 19.5313 159.85 21.4655 156.777 21.4717L151.569 21.4842V5.67325L157.265 5.72958C159.9 5.75462 162.078 7.41959 163.117 9.81064C163.956 11.9388 164.163 14.236 163.424 16.5081L163.43 16.5143Z" fill="white"/>
</svg>
